<svg width="25" height="25" viewBox="0 0 25 25" fill="none" xmlns="http://www.w3.org/2000/svg">
<g clip-path="url(#clip0_1347_208)">
<path d="M24.7381 12.7283C24.7381 11.7285 24.655 10.9988 24.4753 10.2422H12.7907V14.755H19.6493C19.5111 15.8765 18.7644 17.5655 17.105 18.7004L17.0817 18.8515L20.7762 21.6481L21.0322 21.673C23.3829 19.5517 24.7381 16.4305 24.7381 12.7283Z" fill="#4285F4"/>
<path d="M12.7907 24.6185C16.1509 24.6185 18.9717 23.5376 21.0322 21.673L17.105 18.7004C16.0541 19.4165 14.6436 19.9164 12.7907 19.9164C9.49969 19.9164 6.70646 17.7952 5.71076 14.8632L5.56481 14.8753L1.72326 17.7803L1.67302 17.9167C3.71953 21.8891 7.92324 24.6185 12.7907 24.6185Z" fill="#34A853"/>
<path d="M5.71075 14.8632C5.44803 14.1065 5.29598 13.2958 5.29598 12.4581C5.29598 11.6203 5.44803 10.8096 5.69693 10.053L5.68997 9.89186L1.80028 6.94019L1.67302 6.99933C0.829549 8.64777 0.345566 10.4989 0.345566 12.4581C0.345566 14.4173 0.829549 16.2683 1.67302 17.9167L5.71075 14.8632Z" fill="#FBBC05"/>
<path d="M12.7907 4.99963C15.1276 4.99963 16.704 5.98598 17.6028 6.81024L21.1151 3.45934C18.958 1.50016 16.1509 0.297619 12.7907 0.297619C7.92324 0.297619 3.71953 3.02695 1.67302 6.99933L5.69693 10.053C6.70646 7.12099 9.49969 4.99963 12.7907 4.99963Z" fill="#EB4335"/>
</g>
<defs>
<clipPath id="clip0_1347_208">
<rect width="24.4048" height="24.4048" fill="white" transform="translate(0.345245 0.297619)"/>
</clipPath>
</defs>
</svg>
